<svg width="18" height="18" viewBox="0 0 18 18" fill="none" xmlns="http://www.w3.org/2000/svg">
<path d="M15.9944 3.4235C14.1818 1.61136 11.233 1.61136 9.42084 3.4235L8.99994 3.84416L8.57928 3.4235C6.76713 1.61111 3.81811 1.61111 2.00597 3.4235C0.230613 5.19885 0.219085 8.01297 1.97923 9.96959C3.5846 11.7535 8.31928 15.6076 8.52017 15.7708C8.65654 15.8816 8.82064 15.9356 8.98375 15.9356C8.98915 15.9356 8.99454 15.9356 8.99969 15.9353C9.16845 15.9432 9.33843 15.8853 9.47922 15.7708C9.68011 15.6076 14.4153 11.7535 16.0211 9.96934C17.781 8.01297 17.7695 5.19885 15.9944 3.4235ZM14.9272 8.98502C13.6755 10.3755 10.2349 13.2434 8.99969 14.261C7.76445 13.2436 4.32462 10.376 3.07319 8.98527C1.84531 7.62052 1.83378 5.67691 3.04645 4.46423C3.66579 3.84514 4.47914 3.53535 5.2925 3.53535C6.10585 3.53535 6.91921 3.8449 7.53855 4.46423L8.46375 5.38944C8.57388 5.49957 8.71271 5.5653 8.85841 5.58836C9.09486 5.63913 9.35143 5.57315 9.53539 5.38968L10.4611 4.46423C11.7 3.2258 13.7152 3.22605 14.9534 4.46423C16.1661 5.67691 16.1546 7.62052 14.9272 8.98502Z" fill="#4C506B"/>
</svg>
