<svg width="18" height="14" viewBox="0 0 18 14" fill="none" xmlns="http://www.w3.org/2000/svg">
<path d="M15.9944 1.4235C14.1818 -0.388643 11.233 -0.388643 9.42084 1.4235L8.99994 1.84416L8.57928 1.4235C6.76713 -0.388888 3.81811 -0.388888 2.00597 1.4235C0.230614 3.19885 0.219086 6.01297 1.97923 7.96959C3.5846 9.75352 8.31928 13.6076 8.52017 13.7708C8.65654 13.8816 8.82064 13.9356 8.98375 13.9356C8.98915 13.9356 8.99454 13.9356 8.99969 13.9353C9.16845 13.9432 9.33843 13.8853 9.47922 13.7708C9.68011 13.6076 14.4153 9.75352 16.0211 7.96934C17.781 6.01297 17.7695 3.19885 15.9944 1.4235ZM14.9272 6.98502C13.6755 8.37553 10.2349 11.2434 8.99969 12.261C7.76445 11.2436 4.32462 8.37602 3.07319 6.98527C1.84531 5.62052 1.83378 3.67691 3.04645 2.46423C3.66579 1.84514 4.47914 1.53535 5.2925 1.53535C6.10585 1.53535 6.91921 1.8449 7.53855 2.46423L8.46375 3.38944C8.57388 3.49957 8.71271 3.5653 8.85841 3.58836C9.09486 3.63913 9.35143 3.57315 9.53539 3.38968L10.4611 2.46423C11.7 1.2258 13.7152 1.22605 14.9534 2.46423C16.1661 3.67691 16.1546 5.62052 14.9272 6.98502Z" fill="#4C506B"/>
</svg>
