<svg width="16" height="16" viewBox="0 0 16 16" fill="none" xmlns="http://www.w3.org/2000/svg">
<path d="M14.4318 8.82392L8.18233 14.9512C8.13365 14.9989 8.0682 15.0257 8.00003 15.0257C7.93187 15.0257 7.86642 14.9989 7.81774 14.9512L1.56831 8.82392C0.925474 8.19262 0.482141 7.38647 0.293326 6.5055C0.10451 5.62452 0.178522 4.70748 0.506179 3.86819C0.795423 3.11979 1.27736 2.46115 1.90314 1.95901C2.52893 1.45686 3.27633 1.12906 4.06962 1.00881C5.55126 0.809101 6.93493 1.4066 8.00003 2.69434C9.06623 1.40457 10.4495 0.807226 11.9252 1.0048C12.767 1.1362 13.5556 1.4991 14.203 2.05294C14.8503 2.60679 15.3309 3.32976 15.5909 4.14103C15.851 4.95231 15.8803 5.81992 15.6756 6.6469C15.4709 7.47388 15.0402 8.22764 14.4318 8.82392Z" fill="#E62222"/>
</svg>
