<svg width="18" height="18" viewBox="0 0 18 18" fill="none" xmlns="http://www.w3.org/2000/svg">
<path d="M15.4318 9.82392L9.18233 15.9512C9.13365 15.9989 9.0682 16.0257 9.00003 16.0257C8.93187 16.0257 8.86642 15.9989 8.81774 15.9512L2.56831 9.82392C1.92547 9.19262 1.48214 8.38647 1.29333 7.5055C1.10451 6.62452 1.17852 5.70748 1.50618 4.86819C1.79542 4.11979 2.27736 3.46115 2.90314 2.95901C3.52893 2.45686 4.27633 2.12906 5.06962 2.00881C6.55126 1.8091 7.93493 2.4066 9.00003 3.69434C10.0662 2.40457 11.4495 1.80723 12.9252 2.0048C13.767 2.1362 14.5556 2.4991 15.203 3.05294C15.8503 3.60679 16.3309 4.32976 16.5909 5.14103C16.851 5.95231 16.8803 6.81992 16.6756 7.6469C16.4709 8.47388 16.0402 9.22764 15.4318 9.82392Z" fill="#E62222"/>
</svg>
